<svg width="29" height="29" viewBox="0 0 29 29" fill="none" xmlns="http://www.w3.org/2000/svg">
<g clip-path="url(#clip0_622_274)">
<path fill-rule="evenodd" clip-rule="evenodd" d="M0.339844 2.33984C0.339844 1.23527 1.23528 0.339844 2.33984 0.339844H26.6602C27.7647 0.339844 28.6602 1.23528 28.6602 2.33984V26.6602C28.6602 27.7647 27.7647 28.6602 26.6602 28.6602H2.33984C1.23527 28.6602 0.339844 27.7647 0.339844 26.6602V2.33984ZM7.78628 24.0063C7.78628 24.0063 7.7863 24.0064 7.78632 24.0063L7.78633 24.0063C8.41368 25.3369 9.64951 26.4394 11.7784 26.4394C14.1358 26.4394 15.7516 25.1848 15.7516 22.4282V14.6723C15.7516 13.9374 15.1558 13.3416 14.4209 13.3416V13.3416C13.686 13.3416 13.0902 13.9374 13.0902 14.6723V22.3906C13.0902 23.7212 12.5388 24.0633 11.6643 24.0633C11.5721 24.0633 11.4853 24.0569 11.4033 24.0446C10.2872 23.8772 9.15473 23.1782 8.18916 23.7626L7.78633 24.0063L7.78633 24.0063C7.78631 24.0063 7.78628 24.0063 7.78628 24.0063V24.0063ZM20.1666 23.4465C19.6283 22.9875 18.8757 22.7493 18.2635 23.1038V23.1038C17.6651 23.4503 17.428 24.2206 17.8853 24.7392C18.7779 25.7512 20.156 26.4397 22.0448 26.4397C24.5731 26.4397 26.4551 25.1281 26.4551 22.7326C26.4551 20.5085 25.1813 19.5201 22.9191 18.5505L22.2538 18.2653C21.1133 17.771 20.619 17.4478 20.619 16.6493C20.619 16.0031 21.1133 15.5088 21.8927 15.5088C22.2174 15.5088 22.4935 15.5677 22.7388 15.6988C23.3616 16.0316 24.1055 16.3269 24.6997 15.9454V15.9454C25.2471 15.5939 25.442 14.8555 24.9966 14.3814C24.1996 13.5332 23.1847 13.1894 21.8927 13.1894C19.5163 13.1894 17.9955 14.7103 17.9955 16.7064C17.9955 18.8736 19.2692 19.9002 21.1894 20.7175L21.8546 21.0028C23.0713 21.5349 23.7936 21.8582 23.7936 22.7707C23.7936 23.5311 23.0904 24.0824 21.9877 24.0824C21.2065 24.0824 20.6276 23.8397 20.1666 23.4465Z" fill="#F2F2F2"/>
</g>
<defs>
<clipPath id="clip0_622_274">
<rect width="29" height="29" fill="white"/>
</clipPath>
</defs>
</svg>
