<svg width="29" height="29" viewBox="0 0 29 29" fill="none" xmlns="http://www.w3.org/2000/svg">
<path d="M25.5575 19.5432C25.3589 20.6867 24.6526 21.6856 23.6197 22.2839C22.6568 22.8416 21.503 23.0081 20.2814 23.1842C19.6269 23.2785 18.9502 23.3762 18.2891 23.5392C16.5411 23.9702 14.848 24.8113 13.2106 25.6245C9.93391 27.2521 7.1041 28.6575 4.43581 26.8083C2.4813 25.4536 2.57156 22.9473 2.79926 21.5739C3.01029 20.3015 3.58082 19.1296 4.13255 17.9963C4.22788 17.8004 4.3213 17.6081 4.41221 17.4174C4.68567 17.5266 4.97654 17.6012 5.27973 17.6351C4.71811 19.4886 5.60132 21.5039 7.45516 22.4563L7.70884 22.5867L7.97756 22.491C9.44309 21.9691 10.7935 21.1315 11.9913 20.0014C12.7656 19.271 13.4313 18.4628 13.9784 17.5993C14.1424 17.6241 14.3102 17.6371 14.481 17.6371C16.1824 17.6371 17.5914 16.3651 17.8094 14.7223C18.5059 14.6968 19.2456 14.6966 19.9461 14.722C20.164 16.3649 21.573 17.6371 23.2745 17.6371C23.9859 17.6371 24.6458 17.4141 25.1895 17.0354C25.5669 17.8079 25.7078 18.6772 25.5575 19.5432ZM5.65426 12.2578C6.77922 12.2578 7.69434 13.1729 7.69434 14.2978C7.69434 14.7019 7.5758 15.0787 7.37222 15.396C7.03303 15.9248 6.45677 16.2874 5.79442 16.3326C5.74807 16.3357 5.70139 16.3379 5.65426 16.3379C5.40361 16.3379 5.16344 16.2922 4.9414 16.2092C4.49224 16.0411 4.11798 15.7188 3.88256 15.3073C3.71214 15.0094 3.61418 14.6649 3.61418 14.2978C3.61418 13.1729 4.52936 12.2578 5.65426 12.2578ZM12.4409 14.2785C12.4409 13.2564 13.1965 12.4077 14.1782 12.261C14.2771 12.2462 14.3782 12.2384 14.481 12.2384C15.135 12.2384 15.7173 12.5482 16.0907 13.0283C16.1836 13.1476 16.2641 13.277 16.3289 13.4152C16.452 13.6775 16.5211 13.97 16.5211 14.2785C16.5211 14.4416 16.5013 14.6001 16.465 14.7522C16.2662 15.5845 15.5565 16.2206 14.6868 16.3082C14.6192 16.315 14.5505 16.3185 14.481 16.3185C14.0737 16.3185 13.6943 16.1981 13.3754 15.9916C12.8137 15.6278 12.4409 14.996 12.4409 14.2785ZM20.9555 11.8526C20.5185 12.2707 20.1935 12.805 20.0316 13.4058C19.2762 13.3774 18.4751 13.3774 17.724 13.4058C17.5515 12.7655 17.1936 12.2005 16.7123 11.7714L18.8232 7.50291L20.9555 11.8526ZM11.8622 1.31852H25.7786L22.4918 11.0127C22.3493 11.0469 22.2103 11.0899 22.0754 11.1417L18.8285 4.51798L15.5723 11.1021C15.4315 11.0537 15.2865 11.0147 15.138 10.9851L11.8622 1.31852ZM25.3146 14.2785C25.3146 14.483 25.284 14.6805 25.2278 14.8669C25.0938 15.3105 24.8127 15.6905 24.4415 15.9504C24.1105 16.1821 23.7082 16.3185 23.2745 16.3185C22.3326 16.3185 21.5379 15.6766 21.3044 14.8073C21.259 14.6385 21.2344 14.4613 21.2344 14.2785C21.2344 13.9996 21.2908 13.7337 21.3925 13.4914C21.4449 13.3666 21.5103 13.2486 21.5854 13.1377C21.9526 12.5958 22.5721 12.2384 23.2745 12.2384C23.3389 12.2384 23.4025 12.2417 23.4654 12.2476C24.5011 12.3441 25.3146 13.2179 25.3146 14.2785ZM26.6331 14.2785C26.6331 12.6387 25.4517 11.2706 23.8957 10.9783L27.6179 0H10.0232L13.7512 11.0007C12.2491 11.3349 11.1224 12.6772 11.1224 14.2785C11.1224 15.4808 11.7579 16.537 12.7102 17.1305C12.2521 17.8129 11.7089 18.4551 11.0865 19.0424C10.0993 19.9737 8.99948 20.68 7.8138 21.1447C6.61955 20.3945 6.11468 18.9798 6.63899 17.7474L6.68007 17.6508C6.70578 17.5904 6.73149 17.53 6.75713 17.4695C8.06886 17.012 9.01286 15.7635 9.01286 14.2978C9.01286 12.4458 7.50618 10.9392 5.65426 10.9392C3.80233 10.9392 2.29566 12.4458 2.29566 14.2978C2.29566 15.2326 2.67987 16.0791 3.29826 16.6886C3.18618 16.9274 3.06818 17.1704 2.94707 17.4191C2.38169 18.5804 1.74089 19.8966 1.49854 21.3582C1.01722 24.2609 1.79363 26.5813 3.68472 27.892C4.83229 28.6873 5.9976 29 7.17036 29C9.37862 29 11.6124 27.8906 13.7972 26.8054C15.3706 26.0239 16.9977 25.2157 18.6048 24.8194C19.2028 24.6719 19.8181 24.5832 20.4696 24.4892C21.7614 24.3028 23.0973 24.1102 24.2805 23.4249C25.6521 22.6304 26.591 21.2978 26.8565 19.7688C27.0844 18.4561 26.8102 17.1414 26.1412 16.0264C26.4531 15.5169 26.6331 14.9183 26.6331 14.2785Z" fill="#F2F2F2"/>
</svg>
