<svg width="29" height="29" viewBox="0 0 29 29" fill="none" xmlns="http://www.w3.org/2000/svg">
<path d="M13.5503 0.007804C13.488 0.0134728 13.2895 0.0333135 13.1109 0.0474854C8.99198 0.41879 5.13382 2.64095 2.69022 6.05638C1.32952 7.95541 0.459238 10.1095 0.130401 12.3912C0.014174 13.1877 0 13.4229 0 14.5028C0 15.5827 0.014174 15.818 0.130401 16.6145C0.918475 22.0593 4.79365 26.634 10.0494 28.329C10.9905 28.6322 11.9827 28.8391 13.1109 28.9639C13.5503 29.012 15.4497 29.012 15.8891 28.9639C17.8366 28.7484 19.4864 28.2666 21.1136 27.4361C21.3631 27.3086 21.4112 27.2746 21.3772 27.2462C21.3545 27.2292 20.2915 25.8035 19.0158 24.0802L16.697 20.9482L13.7913 16.6485C12.1925 14.2846 10.8771 12.3515 10.8658 12.3515C10.8544 12.3487 10.8431 14.2591 10.8374 16.5918C10.8289 20.6761 10.8261 20.8405 10.7751 20.9369C10.7014 21.0758 10.6447 21.1325 10.5256 21.1948C10.4349 21.2402 10.3555 21.2487 9.92747 21.2487H9.43705L9.30665 21.1665C9.2216 21.1126 9.15924 21.0418 9.11672 20.9596L9.05718 20.832L9.06285 15.1491L9.07136 9.46331L9.15924 9.35277C9.20459 9.29324 9.30098 9.21671 9.36901 9.17987C9.48524 9.12318 9.5306 9.11751 10.021 9.11751C10.5993 9.11751 10.6957 9.14019 10.8459 9.30458C10.8885 9.34993 12.4618 11.7195 14.3441 14.5737C16.2264 17.4279 18.8004 21.3252 20.0647 23.2384L22.3609 26.7162L22.4771 26.6397C23.5062 25.9708 24.5947 25.0184 25.4565 24.0264C27.2906 21.9204 28.4727 19.3525 28.8696 16.6145C28.9858 15.818 29 15.5827 29 14.5028C29 13.4229 28.9858 13.1877 28.8696 12.3912C28.0815 6.94637 24.2064 2.37168 18.9506 0.676718C18.0237 0.376274 17.0371 0.169364 15.9316 0.044651C15.6594 0.0163072 13.7856 -0.0148711 13.5503 0.007804ZM19.4864 8.77739C19.6225 8.84541 19.733 8.97579 19.7727 9.11184C19.7954 9.18554 19.8011 10.7615 19.7954 14.3129L19.7869 19.4092L18.8883 18.0316L17.9868 16.6541V12.9496C17.9868 10.5545 17.9981 9.20821 18.0152 9.14302C18.0605 8.98429 18.1597 8.85958 18.2958 8.78589C18.412 8.72637 18.4545 8.7207 18.8996 8.7207C19.3192 8.7207 19.3929 8.72637 19.4864 8.77739Z" fill="#F2F2F2"/>
</svg>
