<svg width="29" height="29" viewBox="0 0 29 29" fill="none" xmlns="http://www.w3.org/2000/svg">
<path fill-rule="evenodd" clip-rule="evenodd" d="M14.5257 28.6076C14.1361 28.6076 13.7726 28.5037 13.435 28.3219L9.98102 26.2704C9.46163 25.9847 9.72132 25.8808 9.87714 25.8289C10.5783 25.5951 10.7082 25.5432 11.4353 25.1277C11.5132 25.0758 11.6171 25.1017 11.695 25.1537L14.3439 26.7378C14.4478 26.7897 14.5776 26.7897 14.6555 26.7378L25.0173 20.7389C25.1212 20.6869 25.1732 20.583 25.1732 20.4532V8.48127C25.1732 8.35142 25.1212 8.24755 25.0173 8.19561L14.6555 2.22263C14.5516 2.17069 14.4218 2.17069 14.3439 2.22263L3.98207 8.19561C3.87819 8.24755 3.82625 8.37739 3.82625 8.48127V20.4532C3.82625 20.5571 3.87819 20.6869 3.98207 20.7389L6.81274 22.3749C8.34494 23.154 9.30581 22.2451 9.30581 21.3362V9.52005C9.30581 9.36423 9.43566 9.20842 9.61745 9.20842H10.9419C11.0977 9.20842 11.2535 9.33826 11.2535 9.52005V21.3362C11.2535 23.3877 10.1368 24.5823 8.18912 24.5823C7.59183 24.5823 7.12438 24.5823 5.79993 23.9331L3.07314 22.3749C2.39793 21.9854 1.98242 21.2582 1.98242 20.4792V8.50724C1.98242 7.72816 2.39793 7.00101 3.07314 6.61147L13.435 0.612523C14.0842 0.248951 14.9672 0.248951 15.6164 0.612523L25.9782 6.61147C26.6534 7.00101 27.0689 7.72816 27.0689 8.50724V20.4792C27.0689 21.2582 26.6534 21.9854 25.9782 22.3749L15.6164 28.3739C15.2788 28.5297 14.8892 28.6076 14.5257 28.6076ZM17.7199 20.3753C13.1753 20.3753 12.2404 18.2977 12.2404 16.5318C12.2404 16.376 12.3702 16.2202 12.552 16.2202H13.9024C14.0582 16.2202 14.1881 16.3241 14.1881 16.4799C14.3958 17.8562 14.9931 18.5315 17.7459 18.5315C19.9273 18.5315 20.8622 18.038 20.8622 16.8694C20.8622 16.1942 20.6025 15.7008 17.2005 15.3632C14.3699 15.0775 12.6039 14.4542 12.6039 12.1949C12.6039 10.0914 14.3699 8.84484 17.3304 8.84484C20.6545 8.84484 22.2905 9.9875 22.4983 12.4806C22.4983 12.5585 22.4723 12.6364 22.4204 12.7143C22.3685 12.7662 22.2905 12.8182 22.2126 12.8182H20.8622C20.7324 12.8182 20.6025 12.7143 20.5766 12.5844C20.2649 11.1561 19.4599 10.6887 17.3304 10.6887C14.9412 10.6887 14.6555 11.5197 14.6555 12.143C14.6555 12.8961 14.9931 13.1298 18.2133 13.5453C21.4076 13.9608 22.9138 14.5581 22.9138 16.7915C22.8878 19.0768 21.018 20.3753 17.7199 20.3753Z" fill="#F2F2F2"/>
</svg>
