<svg width="29" height="29" viewBox="0 0 29 29" fill="none" xmlns="http://www.w3.org/2000/svg">
<path d="M23.8438 9.94877C23.543 9.84522 23.2313 9.74725 22.9103 9.65459C22.963 9.43929 23.0115 9.22677 23.0545 9.01786C23.7612 5.58759 23.2991 2.82413 21.7214 1.91428C20.2085 1.04186 17.7343 1.9515 15.2355 4.12613C14.9952 4.33524 14.7543 4.55664 14.5134 4.78867C14.3529 4.63515 14.1927 4.4868 14.0329 4.34489C11.4141 2.01964 8.78912 1.03974 7.21291 1.95222C5.70149 2.82718 5.2539 5.42509 5.89 8.67599C5.95143 8.98999 6.02323 9.31065 6.10443 9.63668C5.73293 9.74214 5.37427 9.85457 5.03111 9.97417C1.96082 11.0446 0 12.7222 0 14.4624C0 16.2596 2.10494 18.0623 5.30288 19.1553C5.55525 19.2416 5.81712 19.3232 6.08698 19.4006C5.99939 19.7532 5.9232 20.0987 5.85924 20.4358C5.25271 23.6302 5.72637 26.1668 7.23377 27.0362C8.79077 27.9341 11.4039 27.0112 13.9483 24.787C14.1495 24.6112 14.3513 24.4247 14.5535 24.2293C14.8156 24.4817 15.0772 24.7205 15.3375 24.9445C17.8021 27.0654 20.2363 27.9218 21.7423 27.05C23.2978 26.1495 23.8033 23.4247 23.147 20.1095C23.0969 19.8563 23.0386 19.5976 22.973 19.3344C23.1566 19.2801 23.3367 19.2241 23.5124 19.1659C26.8369 18.0644 29 16.2836 29 14.4624C29 12.7159 26.9759 11.027 23.8438 9.94877ZM23.1227 17.9899C22.9642 18.0424 22.8015 18.0932 22.6357 18.1424C22.2686 16.9804 21.7733 15.7449 21.1671 14.4684C21.7456 13.2223 22.2218 12.0026 22.5785 10.8482C22.8752 10.9341 23.1631 11.0246 23.4406 11.1202C26.1242 12.044 27.7611 13.4099 27.7611 14.4624C27.7611 15.5835 25.9933 17.0388 23.1227 17.9899ZM21.9317 20.3501C22.2219 21.816 22.2633 23.1414 22.0711 24.1775C21.8984 25.1085 21.551 25.7292 21.1216 25.9778C20.2076 26.5068 18.2532 25.8192 16.1454 24.0054C15.9038 23.7975 15.6604 23.5755 15.4162 23.3405C16.2334 22.4468 17.0501 21.4079 17.8471 20.254C19.2491 20.1296 20.5736 19.9262 21.7747 19.6486C21.8339 19.8872 21.8864 20.1212 21.9317 20.3501ZM9.88676 25.8864C8.99384 26.2018 8.28268 26.2108 7.85279 25.9629C6.93804 25.4353 6.55776 23.3987 7.07648 20.6668C7.13589 20.3539 7.20661 20.0326 7.28812 19.7041C8.47609 19.9667 9.7909 20.1558 11.1962 20.2697C11.9986 21.3988 12.8389 22.4366 13.6856 23.3453C13.5006 23.5239 13.3164 23.6939 13.1331 23.8542C12.008 24.8377 10.8804 25.5355 9.88676 25.8864ZM5.70355 17.9831C4.28949 17.4997 3.1217 16.8716 2.32123 16.1861C1.60196 15.5701 1.23882 14.9586 1.23882 14.4624C1.23882 13.4064 2.81317 12.0595 5.4389 11.144C5.7575 11.0329 6.09101 10.9283 6.43712 10.8299C6.80001 12.0104 7.27604 13.2445 7.85052 14.4925C7.26861 15.7591 6.78581 17.0129 6.41936 18.2072C6.17262 18.1363 5.93357 18.0616 5.70355 17.9831ZM7.1058 8.43807C6.5608 5.65278 6.92276 3.55166 7.83359 3.02441C8.80378 2.46274 10.9491 3.26357 13.2103 5.27131C13.3548 5.39964 13.4999 5.53395 13.6454 5.67291C12.8029 6.57765 11.9703 7.60767 11.175 8.73008C9.81108 8.8565 8.50552 9.05957 7.30516 9.3315C7.22969 9.02793 7.16284 8.72967 7.1058 8.43807ZM19.6151 11.5269C19.3281 11.0313 19.0335 10.5474 18.7332 10.0766C19.6585 10.1936 20.545 10.3489 21.3775 10.5389C21.1276 11.3399 20.8161 12.1774 20.4494 13.036C20.1863 12.5366 19.9081 12.0331 19.6151 11.5269ZM14.5138 6.55829C15.0853 7.17737 15.6575 7.86855 16.2204 8.61848C15.6532 8.59169 15.079 8.57775 14.5 8.57775C13.9265 8.57775 13.3565 8.59138 12.7928 8.61771C13.3563 7.87475 13.9335 7.18449 14.5138 6.55829ZM9.3799 11.5355C9.09326 12.0326 8.82019 12.5334 8.56127 13.0351C8.2005 12.1795 7.89186 11.3382 7.63975 10.5258C8.46716 10.3406 9.3495 10.1892 10.2689 10.0745C9.96434 10.5495 9.66732 11.037 9.3799 11.5354V11.5355ZM10.2954 18.9387C9.34547 18.8327 8.44987 18.6891 7.62267 18.5091C7.8788 17.6822 8.19425 16.8229 8.56266 15.9488C8.82226 16.4502 9.09641 16.9512 9.38481 17.4494H9.38486C9.67863 17.9568 9.98297 18.4539 10.2954 18.9387ZM14.5481 22.4538C13.9609 21.8203 13.3753 21.1195 12.8033 20.3657C13.3585 20.3875 13.9246 20.3986 14.5 20.3986C15.0911 20.3986 15.6754 20.3853 16.2506 20.3597C15.6859 21.1271 15.1157 21.829 14.5481 22.4538ZM20.4612 15.9043C20.8488 16.7878 21.1756 17.6426 21.435 18.4554C20.5942 18.6472 19.6863 18.8017 18.7298 18.9165C19.0309 18.4394 19.328 17.9472 19.62 17.4408C19.9155 16.9286 20.196 16.4155 20.4612 15.9043ZM18.5469 16.8219C18.0936 17.6079 17.6282 18.3583 17.1557 19.0666C16.2952 19.1281 15.4061 19.1598 14.5 19.1598C13.5975 19.1598 12.7197 19.1317 11.8744 19.0769C11.3828 18.3593 10.9073 17.6067 10.4569 16.8287H10.457C10.0078 16.0527 9.59428 15.2702 9.21962 14.4921C9.59418 13.7122 10.0066 12.9288 10.4532 12.1543L10.4531 12.1544C10.901 11.3778 11.3723 10.6289 11.8593 9.91584C12.7218 9.85064 13.6062 9.81663 14.4999 9.81663H14.5C15.3978 9.81663 16.2834 9.8509 17.1456 9.91666C17.6251 10.6245 18.0932 11.371 18.5428 12.1477C18.9976 12.9332 19.4153 13.7113 19.793 14.4745C19.4164 15.2508 18.9996 16.0368 18.5469 16.8219ZM21.1026 2.98756C22.0737 3.54758 22.4513 5.80614 21.8412 8.76782C21.8023 8.9568 21.7584 9.14929 21.7108 9.34436C20.5077 9.06675 19.2012 8.86017 17.8333 8.73184C17.0365 7.59709 16.2107 6.56547 15.3819 5.67234C15.6047 5.45797 15.8272 5.25355 16.0488 5.06065C18.1898 3.19744 20.1909 2.46181 21.1026 2.98756ZM14.5 11.8728C15.9302 11.8728 17.0896 13.0322 17.0896 14.4624C17.0896 15.8926 15.9302 17.052 14.5 17.052C13.0698 17.052 11.9104 15.8926 11.9104 14.4624C11.9104 13.0322 13.0698 11.8728 14.5 11.8728Z" fill="#F2F2F2"/>
</svg>
