<svg width="29" height="29" viewBox="0 0 29 29" fill="none" xmlns="http://www.w3.org/2000/svg">
<g clip-path="url(#clip0_622_289)">
<path fill-rule="evenodd" clip-rule="evenodd" d="M26.7344 0H2.26562C1.01435 0 0 1.01435 0 2.26562V26.7344C0 27.9856 1.01435 29 2.26562 29H26.7344C27.9856 29 29 27.9856 29 26.7344V2.26562C29 1.01435 27.9856 0 26.7344 0ZM17.0509 25.8389V22.7101C17.6184 23.186 18.2349 23.5428 18.9004 23.7807C19.5658 24.0187 20.2377 24.1376 20.9161 24.1376C21.3141 24.1376 21.6615 24.1017 21.9583 24.03C22.2551 23.9583 22.5031 23.859 22.702 23.7319C22.9009 23.6048 23.0494 23.4548 23.1472 23.2821C23.2451 23.1094 23.294 22.9219 23.294 22.7199C23.294 22.4461 23.2157 22.2017 23.0592 21.9865C22.9026 21.7714 22.689 21.5726 22.4182 21.3901C22.1475 21.2076 21.8262 21.0317 21.4543 20.8622C21.0825 20.6926 20.6813 20.52 20.2507 20.344C19.1547 19.8877 18.3377 19.3303 17.7995 18.672C17.2612 18.0136 16.9922 17.2184 16.9922 16.2863C16.9922 15.5562 17.139 14.9289 17.4325 14.4042C17.7261 13.8794 18.1257 13.4476 18.6313 13.1086C19.1368 12.7696 19.7224 12.5203 20.3878 12.3607C21.0532 12.201 21.7577 12.1211 22.5014 12.1211C23.2321 12.1211 23.8796 12.165 24.4438 12.2531C25.0081 12.3411 25.5284 12.4763 26.0046 12.6588V15.5823C25.7698 15.4194 25.5137 15.276 25.2365 15.1522C24.9591 15.0282 24.6738 14.9256 24.3803 14.8441C24.0867 14.7626 23.7947 14.7023 23.5044 14.6632C23.2142 14.6242 22.9385 14.6046 22.6775 14.6046C22.3188 14.6046 21.9925 14.6388 21.699 14.7072C21.4054 14.7757 21.1575 14.8718 20.9553 14.9957C20.7531 15.1195 20.5965 15.2678 20.4856 15.4406C20.3747 15.6133 20.3193 15.8072 20.3193 16.0223C20.3193 16.257 20.3812 16.4671 20.5052 16.6529C20.6291 16.8387 20.8052 17.0147 21.0336 17.1809C21.2619 17.3472 21.5392 17.5101 21.8653 17.6698C22.1916 17.8296 22.5601 17.994 22.9711 18.1636C23.5321 18.3982 24.0361 18.6476 24.483 18.9115C24.9298 19.1756 25.3131 19.4737 25.6327 19.8062C25.9524 20.1386 26.1971 20.5183 26.3667 20.9452C26.5362 21.3722 26.6211 21.8693 26.6211 22.4364C26.6211 23.2186 26.4727 23.8753 26.1759 24.4064C25.879 24.9377 25.4762 25.368 24.9673 25.6972C24.4586 26.0263 23.8664 26.2626 23.1913 26.406C22.5161 26.5494 21.8034 26.6211 21.0532 26.6211C20.2833 26.6211 19.5511 26.556 18.8563 26.4256C18.1616 26.2952 17.5597 26.0997 17.0509 25.8389ZM15.8594 14.9239H11.8359V26.3945H8.64842V14.9239H4.64453V12.3477H15.8594V14.9239Z" fill="#F2F2F2"/>
</g>
<defs>
<clipPath id="clip0_622_289">
<rect width="29" height="29" fill="white"/>
</clipPath>
</defs>
</svg>
